<?xml version="1.0" encoding="UTF-8" standalone="no"?>
<!DOCTYPE svg PUBLIC "-//W3C//DTD SVG 1.1//EN" "http://www.w3.org/Graphics/SVG/1.1/DTD/svg11.dtd">
<svg width="100%" height="100%" viewBox="0 0 466 97" version="1.1" xmlns="http://www.w3.org/2000/svg" xmlns:xlink="http://www.w3.org/1999/xlink" xml:space="preserve" xmlns:serif="http://www.serif.com/" style="fill-rule:evenodd;clip-rule:evenodd;stroke-linejoin:round;stroke-miterlimit:2;">
    <g transform="matrix(0.0738959,6.57904e-21,-6.57904e-21,0.0738959,60.0117,94.2475)">
        <path d="M-7.046,0L280.098,0L450.975,-295.952L623.613,0L916.042,0L604.236,-480.922L898.426,-935.42L621.852,-935.42L458.021,-653.561L292.429,-935.42L7.046,-935.42L308.284,-477.399L-7.046,0Z" style="fill:white;"/>
        <path d="M771.554,0L1058.7,0L1229.58,-295.952L1402.21,0L1694.64,0L1382.84,-480.922L1677.03,-935.42L1400.45,-935.42L1236.62,-653.561L1071.03,-935.42L785.646,-935.42L1086.88,-477.399L771.554,0Z" style="fill:white;"/>
        <path d="M2082.26,7.046L2082.26,-181.447L2020.61,-181.447C1953.66,-181.447 1937.81,-192.017 1937.81,-241.342L1937.81,-759.258L2082.26,-759.258L2082.26,-935.42L1937.81,-935.42L1937.81,-1190.86L1689.42,-1190.86L1689.42,-935.42L1566.11,-935.42L1566.11,-759.258L1689.42,-759.258L1689.42,-253.673C1689.42,-58.133 1733.46,12.331 1939.57,12.331C1966,12.331 2013.56,8.808 2082.26,7.046Z" style="fill:white;"/>
        <path d="M2096.32,0L2346.47,0L2346.47,-495.015C2346.47,-635.945 2416.93,-706.41 2552.58,-706.41L2635.38,-706.41L2635.38,-960.083C2623.05,-961.845 2610.71,-961.845 2598.38,-961.845C2478.59,-961.845 2394.03,-903.711 2328.85,-775.113L2328.85,-935.42L2096.32,-935.42L2096.32,0Z" style="fill:white;"/>
        <path d="M3174.43,-459.783L3174.43,-371.702C3174.43,-239.58 3091.63,-158.546 2955.99,-158.546C2880.24,-158.546 2832.68,-202.586 2832.68,-271.289C2832.68,-343.516 2871.43,-373.463 2950.7,-396.364C2998.27,-410.457 3079.3,-415.742 3174.43,-459.783ZM3177.95,-116.267C3179.72,-72.226 3188.52,-33.471 3206.14,0L3466.86,0L3466.86,-42.279C3424.58,-63.418 3414.01,-103.936 3414.01,-172.639L3414.01,-704.648C3414.01,-873.764 3273.08,-968.891 3008.84,-968.891C2767.49,-968.891 2626.57,-850.862 2626.57,-660.608L2626.57,-642.991L2860.86,-642.991L2860.86,-657.084C2860.86,-731.072 2915.47,-773.351 3017.64,-773.351C3125.1,-773.351 3170.91,-745.165 3170.91,-667.654C3170.91,-577.811 3103.97,-591.904 2910.19,-561.957C2691.75,-528.486 2593.1,-447.451 2593.1,-264.243C2593.1,-72.226 2697.03,33.471 2876.72,33.471C3012.36,33.471 3116.3,-19.378 3177.95,-116.267Z" style="fill:white;"/>
        <rect x="3510.93" y="-1266.61" width="250.15" height="1266.61" style="fill:white;"/>
        <path d="M3861.51,0L4111.65,0L4111.65,-935.42L3861.51,-935.42L3861.51,0ZM3861.51,-1039.36L4111.65,-1039.36L4111.65,-1266.61L3861.51,-1266.61L3861.51,-1039.36Z" style="fill:white;"/>
        <path d="M4249.06,0L4493.93,0L4493.93,-759.258L4648.95,-759.258L4648.95,-935.42L4492.16,-935.42L4492.16,-1000.6C4492.16,-1060.5 4515.07,-1071.07 4583.77,-1071.07L4648.95,-1071.07L4648.95,-1270.13C4604.91,-1273.65 4566.15,-1275.41 4529.16,-1275.41C4337.14,-1275.41 4249.06,-1197.9 4249.06,-1021.74L4249.06,-935.42L4115.18,-935.42L4115.18,-759.258L4249.06,-759.258L4249.06,0Z" style="fill:white;"/>
        <path d="M4856.82,-565.48C4867.39,-692.317 4932.56,-759.258 5040.02,-759.258C5156.29,-759.258 5221.47,-692.317 5224.99,-565.48L4856.82,-565.48ZM5221.47,-283.621C5189.76,-211.394 5135.15,-179.685 5050.59,-179.685C4929.04,-179.685 4863.86,-255.435 4856.82,-401.649L5482.19,-401.649C5483.95,-424.55 5483.95,-445.69 5483.95,-466.829C5483.95,-789.206 5320.12,-968.891 5034.74,-968.891C4765.21,-968.891 4597.86,-780.398 4597.86,-473.876C4597.86,-158.546 4772.26,31.709 5038.26,31.709C5260.23,31.709 5420.53,-88.081 5471.62,-283.621L5221.47,-283.621Z" style="fill:white;"/>
        <g transform="matrix(1,1.20371e-35,-1.20371e-35,1,-873.8,0)">
            <path d="M320.615,-565.48C331.185,-692.317 396.364,-759.258 503.823,-759.258C620.09,-759.258 685.27,-692.317 688.793,-565.48L320.615,-565.48ZM685.27,-283.621C653.561,-211.394 598.951,-179.685 514.393,-179.685C392.841,-179.685 327.661,-255.435 320.615,-401.649L945.99,-401.649C947.752,-424.55 947.752,-445.69 947.752,-466.829C947.752,-789.206 783.921,-968.891 498.538,-968.891C229.011,-968.891 61.657,-780.398 61.657,-473.876C61.657,-158.546 236.057,31.709 502.062,31.709C724.026,31.709 884.333,-88.081 935.42,-283.621L685.27,-283.621Z" style="fill:white;fill-rule:nonzero;"/>
        </g>
    </g>
</svg>
