<?xml version="1.0" encoding="UTF-8" standalone="no"?>
<!DOCTYPE svg PUBLIC "-//W3C//DTD SVG 1.1//EN" "http://www.w3.org/Graphics/SVG/1.1/DTD/svg11.dtd">
<svg width="100%" height="100%" viewBox="0 0 398 89" version="1.1" xmlns="http://www.w3.org/2000/svg" xmlns:xlink="http://www.w3.org/1999/xlink" xml:space="preserve" xmlns:serif="http://www.serif.com/" style="fill-rule:evenodd;clip-rule:evenodd;stroke-linejoin:round;stroke-miterlimit:2;">
    <g id="spread" transform="matrix(0.189751,0,0,0.189751,-40.9448,-257.854)">
        <g id="CROSSES" transform="matrix(28.2069,0,0,28.2069,-2827.8,-9183.1)">
            <g transform="matrix(0.112174,0,0,0.112174,51.7146,336.382)">
                <path d="M1074.33,409.075L1045.56,409.075L1045.56,390.676L1074.33,390.676L1074.33,363.185L1092.61,363.185L1092.61,390.676L1121.39,390.676L1121.39,409.075L1092.61,409.075L1092.61,436.566L1074.33,436.566L1074.33,409.075Z"/>
            </g>
            <g id="rect5-5-0" transform="matrix(1.30645,0,0,1,-55.9514,-1.19692)">
                <rect x="179.41" y="382.434" width="1.19" height="5.838"/>
            </g>
            <g id="rect5-8-6-2" transform="matrix(-5.10477e-16,-1.33334,1,-3.82857e-16,-0.788867,-129.649)">
                <rect x="-385.929" y="176.989" width="1.151" height="6.033"/>
            </g>
        </g>
        <g transform="matrix(6.09579,0,0,6.09579,-503.931,1116.09)">
            <g id="e">
                <path d="M170.294,98.765C164.822,105.093 156.75,109.124 147.81,109.124C131.493,109.124 118.067,95.698 118.067,79.381C118.067,63.065 131.493,49.639 147.81,49.639C148.445,49.639 149.075,49.659 149.701,49.699C151.561,49.644 153.697,49.634 156.126,49.641C159.394,49.65 163.191,49.689 167.556,49.689C202.477,49.689 201.036,47.192 183.576,77.435C176.973,88.871 173.279,95.98 170.294,98.765ZM183.788,63.364L183.788,66.041L185.721,66.041L185.721,63.364L188.507,63.364L188.507,61.455L185.721,61.455L185.721,58.778L183.788,58.778L183.788,61.455L181.002,61.455L181.002,63.364L183.788,63.364ZM175.575,59.479L175.575,63.315L178.126,63.315L178.126,59.479L182.142,59.479L182.142,56.911L178.126,56.911L178.126,53.074L175.575,53.074L175.575,56.911L171.559,56.911L171.559,59.479L175.575,59.479ZM122.523,79.381C122.523,80.999 122.678,82.584 122.974,84.12C125.219,95.761 135.556,104.668 147.81,104.668C161.682,104.668 173.097,93.253 173.097,79.381C173.097,65.509 161.682,54.095 147.81,54.095C133.938,54.095 122.523,65.509 122.523,79.381ZM136.626,81.927C137.038,83.576 137.646,84.988 138.45,86.163C139.254,87.338 140.181,88.307 141.233,89.069C142.284,89.832 143.387,90.388 144.541,90.739C145.695,91.089 146.808,91.264 147.88,91.264C150.271,91.264 152.302,90.677 153.971,89.502C155.641,88.327 156.868,86.998 157.651,85.514L164.082,85.514C163.258,87.74 162.186,89.595 160.866,91.079C159.547,92.563 158.135,93.748 156.631,94.635C155.126,95.521 153.58,96.16 151.993,96.552C150.405,96.943 148.952,97.139 147.633,97.139C145.201,97.139 142.923,96.655 140.8,95.686C138.677,94.717 136.832,93.408 135.265,91.759C133.699,90.11 132.462,88.193 131.555,86.008C130.648,83.823 130.195,81.515 130.195,79.082C130.195,76.526 130.658,74.146 131.586,71.94C132.513,69.734 133.771,67.828 135.358,66.22C136.945,64.612 138.8,63.355 140.924,62.448C143.047,61.541 145.324,61.087 147.757,61.087C150.065,61.087 152.271,61.53 154.373,62.417C156.476,63.303 158.331,64.53 159.939,66.096C161.547,67.663 162.825,69.518 163.773,71.662C164.721,73.805 165.195,76.135 165.195,78.649C165.195,79.227 165.175,79.866 165.133,80.566C165.092,81.267 165.051,81.721 165.01,81.927L136.626,81.927ZM158.764,76.98C158.681,75.743 158.352,74.517 157.775,73.3C157.197,72.084 156.414,71.012 155.425,70.085C154.435,69.157 153.281,68.405 151.962,67.828C150.642,67.251 149.22,66.962 147.695,66.962C146.128,66.962 144.696,67.251 143.397,67.828C142.098,68.405 140.954,69.157 139.965,70.085C138.976,71.012 138.192,72.084 137.615,73.3C137.038,74.517 136.708,75.743 136.626,76.98L158.764,76.98Z"/>
            </g>
        </g>
        <g id="path1" transform="matrix(1.27122,0,0,1.27122,691.231,998.927)">
            <path d="M169.497,651.777L169.497,283.178L177.558,283.178L177.558,359.332L182.779,363.265C185.651,365.429 189.69,368.492 191.756,370.072C196.655,373.821 202.048,377.935 207.053,381.743C209.27,383.43 212.073,385.57 213.282,386.5C214.491,387.43 217.624,389.821 220.244,391.813C222.864,393.806 226.326,396.445 227.938,397.678C235.629,403.562 245.733,411.258 248.09,413.029C251.197,415.363 252.911,417.207 253.487,418.835C253.791,419.693 255.549,426.578 257.394,434.135C259.239,441.692 260.906,448.453 261.099,449.158C261.689,451.318 263.721,459.512 264.051,461.066C264.683,464.037 265.542,466.946 265.97,467.563C266.212,467.912 275.12,474.946 285.765,483.195C306.87,499.549 308.461,501.013 309.679,505.203C311.571,511.707 306.334,518.085 297.707,519.784C295.161,520.286 294.502,520.285 291.243,519.776C286.913,519.1 285.625,518.387 280.517,513.833C278.602,512.127 275.029,509.201 272.575,507.332C270.122,505.463 263.952,500.719 258.865,496.789C253.778,492.86 247.895,488.325 245.792,486.713C243.138,484.678 241.689,483.284 241.056,482.153C240.113,480.47 238.798,475.429 232.666,449.981C232.12,447.714 231.532,445.859 231.36,445.859C230.956,445.859 229.922,446.902 225.004,452.271C222.789,454.69 220.89,456.751 220.784,456.851C220.678,456.952 216.886,461.071 212.357,466.005C207.828,470.939 202.968,476.219 201.557,477.738C200.147,479.257 197.247,482.393 195.113,484.706C192.98,487.019 190.321,489.901 189.206,491.11C185.967,494.62 185.166,495.671 185.361,496.153C185.549,496.618 187.672,499.661 201.531,519.323C218.151,542.903 222.992,549.863 222.992,550.18C222.992,550.36 223.443,551.404 223.994,552.502C225.288,555.077 225.572,559.203 224.648,561.985C223.887,564.277 223.17,565.14 214.432,574.283C210.58,578.314 205.861,583.259 203.944,585.272C202.027,587.285 198.638,590.83 196.414,593.149C194.189,595.469 190.809,599.01 188.902,601.019C184.899,605.237 185.341,604.776 180.947,609.328L177.558,612.84L177.558,651.777L169.497,651.777ZM185.985,555.515C185.985,554.83 178.549,544.847 178.016,544.816C177.661,544.796 177.558,546.875 177.558,554.071C177.558,559.176 177.673,563.469 177.814,563.61C178.133,563.929 185.985,556.15 185.985,555.515L185.985,555.515ZM240.11,396.755C221.803,392.944 209.069,377.39 209.069,358.84C209.069,339.76 222.47,324.099 241.678,320.733C249.338,319.39 258.573,320.95 265.711,324.791C284.26,334.775 291.419,357.377 282.007,376.239C274.37,391.543 256.681,400.205 240.11,396.755Z" style="fill-rule:nonzero;"/>
        </g>
        <g id="path11" serif:id="path1" transform="matrix(1.02659,0,0,1.02659,1202.12,1162.6)">
            <path d="M258.931,525.411L190.752,493.14L80.203,493.14L80.203,448.294L190.825,448.294L306.228,393.681L80.203,393.596L80.203,348.75L306.303,348.665L238.279,316.475L170.256,284.284L268.139,284.199L336.34,316.474L404.541,348.75L515.072,348.75L515.072,393.596L404.47,393.596L346.767,420.903L289.064,448.209L515.072,448.294L515.072,493.14L288.991,493.225L356.294,525.063C393.311,542.575 423.941,557.076 424.361,557.288L425.126,557.675L327.11,557.681L258.931,525.411Z" style="fill:rgb(255,0,107);fill-rule:nonzero;"/>
        </g>
    </g>
</svg>
